<?xml version="1.0" encoding="UTF-8"?>
<svg xmlns="http://www.w3.org/2000/svg" version="1.1" width="300" height="300" viewBox="0 0 300 300"><rect x="0" y="0" width="300" height="300" fill="#ffffff"/><g transform="scale(9.091)"><g transform="translate(0,0)"><path fill-rule="evenodd" d="M9 0L9 1L8 1L8 2L9 2L9 3L8 3L8 4L10 4L10 7L11 7L11 4L12 4L12 5L15 5L15 6L14 6L14 8L13 8L13 9L14 9L14 10L15 10L15 11L16 11L16 10L15 10L15 8L17 8L17 10L18 10L18 11L19 11L19 12L20 12L20 11L19 11L19 10L22 10L22 9L21 9L21 8L23 8L23 10L24 10L24 11L23 11L23 12L24 12L24 13L22 13L22 14L24 14L24 15L25 15L25 14L27 14L27 15L26 15L26 16L27 16L27 17L25 17L25 16L23 16L23 18L24 18L24 19L23 19L23 20L22 20L22 19L21 19L21 20L22 20L22 21L21 21L21 22L24 22L24 23L25 23L25 24L24 24L24 26L22 26L22 25L23 25L23 23L19 23L19 22L20 22L20 21L19 21L19 20L20 20L20 19L19 19L19 18L20 18L20 16L22 16L22 15L20 15L20 16L19 16L19 15L18 15L18 16L17 16L17 15L16 15L16 14L14 14L14 16L13 16L13 13L16 13L16 12L13 12L13 10L12 10L12 8L6 8L6 9L5 9L5 8L0 8L0 11L1 11L1 13L2 13L2 15L1 15L1 14L0 14L0 16L1 16L1 17L3 17L3 19L2 19L2 18L1 18L1 19L2 19L2 21L3 21L3 19L9 19L9 20L8 20L8 21L10 21L10 20L11 20L11 22L9 22L9 23L8 23L8 24L5 24L5 23L7 23L7 22L3 22L3 23L2 23L2 24L4 24L4 25L8 25L8 27L9 27L9 26L10 26L10 27L11 27L11 28L8 28L8 33L10 33L10 32L11 32L11 33L19 33L19 32L20 32L20 33L21 33L21 32L22 32L22 33L25 33L25 32L26 32L26 33L27 33L27 32L26 32L26 31L27 31L27 30L29 30L29 31L28 31L28 33L29 33L29 32L31 32L31 33L32 33L32 32L31 32L31 31L32 31L32 30L31 30L31 29L30 29L30 30L29 30L29 28L31 28L31 27L32 27L32 29L33 29L33 27L32 27L32 26L33 26L33 23L31 23L31 21L29 21L29 20L31 20L31 19L32 19L32 20L33 20L33 19L32 19L32 18L33 18L33 17L32 17L32 14L33 14L33 11L32 11L32 10L33 10L33 9L32 9L32 8L31 8L31 9L32 9L32 10L28 10L28 8L27 8L27 9L26 9L26 8L24 8L24 7L25 7L25 5L24 5L24 4L25 4L25 2L24 2L24 4L23 4L23 1L24 1L24 0L23 0L23 1L21 1L21 0L18 0L18 1L17 1L17 0L16 0L16 1L15 1L15 0L14 0L14 2L16 2L16 1L17 1L17 2L18 2L18 3L19 3L19 2L18 2L18 1L20 1L20 3L22 3L22 4L19 4L19 5L21 5L21 6L20 6L20 7L19 7L19 6L18 6L18 4L17 4L17 6L16 6L16 5L15 5L15 4L16 4L16 3L12 3L12 2L13 2L13 1L11 1L11 2L10 2L10 0ZM10 3L10 4L11 4L11 3ZM22 4L22 5L23 5L23 7L24 7L24 5L23 5L23 4ZM8 5L8 7L9 7L9 5ZM12 6L12 7L13 7L13 6ZM15 6L15 7L16 7L16 6ZM17 6L17 8L18 8L18 9L20 9L20 8L21 8L21 7L22 7L22 6L21 6L21 7L20 7L20 8L19 8L19 7L18 7L18 6ZM29 8L29 9L30 9L30 8ZM1 9L1 10L2 10L2 11L3 11L3 12L4 12L4 13L3 13L3 15L2 15L2 16L3 16L3 15L4 15L4 16L5 16L5 17L6 17L6 18L7 18L7 17L6 17L6 16L7 16L7 15L8 15L8 16L9 16L9 15L8 15L8 14L10 14L10 13L12 13L12 12L10 12L10 13L9 13L9 12L8 12L8 11L9 11L9 9L8 9L8 10L7 10L7 9L6 9L6 10L5 10L5 9L4 9L4 10L5 10L5 12L4 12L4 11L3 11L3 9ZM10 9L10 11L12 11L12 10L11 10L11 9ZM24 9L24 10L25 10L25 13L28 13L28 14L30 14L30 13L31 13L31 14L32 14L32 13L31 13L31 12L32 12L32 11L31 11L31 12L30 12L30 13L28 13L28 12L26 12L26 11L27 11L27 10L26 10L26 9ZM6 10L6 11L7 11L7 10ZM21 11L21 12L22 12L22 11ZM5 12L5 13L4 13L4 14L5 14L5 13L8 13L8 12ZM17 12L17 13L18 13L18 14L20 14L20 13L18 13L18 12ZM6 14L6 15L7 15L7 14ZM11 14L11 15L10 15L10 16L11 16L11 17L12 17L12 18L10 18L10 17L8 17L8 18L9 18L9 19L12 19L12 20L14 20L14 21L15 21L15 22L14 22L14 23L12 23L12 22L13 22L13 21L12 21L12 22L11 22L11 25L12 25L12 26L11 26L11 27L13 27L13 28L15 28L15 26L16 26L16 25L17 25L17 26L18 26L18 25L17 25L17 24L18 24L18 23L17 23L17 22L16 22L16 21L15 21L15 20L18 20L18 19L15 19L15 18L16 18L16 17L17 17L17 18L18 18L18 17L17 17L17 16L16 16L16 17L15 17L15 16L14 16L14 17L13 17L13 16L11 16L11 15L12 15L12 14ZM28 15L28 16L29 16L29 15ZM30 16L30 17L31 17L31 16ZM21 17L21 18L22 18L22 17ZM28 17L28 18L25 18L25 19L27 19L27 20L25 20L25 21L27 21L27 22L26 22L26 24L29 24L29 21L27 21L27 20L29 20L29 17ZM13 18L13 19L14 19L14 18ZM5 20L5 21L7 21L7 20ZM23 20L23 21L24 21L24 20ZM0 21L0 25L1 25L1 21ZM18 21L18 22L19 22L19 21ZM32 21L32 22L33 22L33 21ZM15 22L15 23L16 23L16 24L15 24L15 25L16 25L16 24L17 24L17 23L16 23L16 22ZM27 22L27 23L28 23L28 22ZM13 24L13 25L14 25L14 24ZM19 24L19 25L22 25L22 24ZM31 24L31 25L30 25L30 27L31 27L31 25L32 25L32 24ZM25 25L25 28L28 28L28 25ZM13 26L13 27L14 27L14 26ZM19 26L19 29L12 29L12 28L11 28L11 29L10 29L10 30L11 30L11 31L12 31L12 32L18 32L18 31L14 31L14 30L19 30L19 31L20 31L20 32L21 32L21 31L22 31L22 32L23 32L23 31L24 31L24 32L25 32L25 31L26 31L26 30L27 30L27 29L26 29L26 30L25 30L25 29L24 29L24 28L23 28L23 27L22 27L22 28L20 28L20 27L21 27L21 26ZM26 26L26 27L27 27L27 26ZM17 27L17 28L18 28L18 27ZM22 28L22 29L19 29L19 30L20 30L20 31L21 31L21 30L22 30L22 31L23 31L23 30L24 30L24 31L25 31L25 30L24 30L24 29L23 29L23 28ZM11 29L11 30L12 30L12 29ZM22 29L22 30L23 30L23 29ZM30 30L30 31L31 31L31 30ZM9 31L9 32L10 32L10 31ZM0 0L0 7L7 7L7 0ZM1 1L1 6L6 6L6 1ZM2 2L2 5L5 5L5 2ZM26 0L26 7L33 7L33 0ZM27 1L27 6L32 6L32 1ZM28 2L28 5L31 5L31 2ZM0 26L0 33L7 33L7 26ZM1 27L1 32L6 32L6 27ZM2 28L2 31L5 31L5 28Z" fill="#000000"/></g></g></svg>
