<?xml version="1.0" encoding="UTF-8"?>
<svg xmlns="http://www.w3.org/2000/svg" version="1.1" width="300" height="300" viewBox="0 0 300 300"><rect x="0" y="0" width="300" height="300" fill="#ffffff"/><g transform="scale(9.091)"><g transform="translate(0,0)"><path fill-rule="evenodd" d="M10 0L10 2L11 2L11 0ZM12 0L12 1L15 1L15 2L14 2L14 3L13 3L13 2L12 2L12 4L14 4L14 5L15 5L15 6L14 6L14 7L15 7L15 6L16 6L16 7L17 7L17 6L16 6L16 5L18 5L18 7L19 7L19 5L20 5L20 8L23 8L23 10L24 10L24 11L23 11L23 12L24 12L24 13L22 13L22 14L24 14L24 15L25 15L25 16L23 16L23 18L24 18L24 19L23 19L23 20L22 20L22 19L20 19L20 20L19 20L19 18L20 18L20 17L19 17L19 16L20 16L20 15L19 15L19 14L21 14L21 12L22 12L22 11L21 11L21 12L20 12L20 11L18 11L18 12L17 12L17 11L16 11L16 10L14 10L14 12L13 12L13 13L14 13L14 12L17 12L17 13L18 13L18 14L17 14L17 15L18 15L18 16L17 16L17 18L15 18L15 17L16 17L16 16L15 16L15 17L14 17L14 16L13 16L13 15L14 15L14 14L12 14L12 12L8 12L8 11L9 11L9 9L10 9L10 11L11 11L11 9L12 9L12 10L13 10L13 9L16 9L16 8L12 8L12 7L13 7L13 5L11 5L11 6L10 6L10 4L11 4L11 3L8 3L8 4L9 4L9 5L8 5L8 7L9 7L9 8L6 8L6 9L5 9L5 8L0 8L0 10L1 10L1 11L3 11L3 12L2 12L2 13L3 13L3 16L2 16L2 14L1 14L1 12L0 12L0 14L1 14L1 16L0 16L0 19L2 19L2 25L7 25L7 24L6 24L6 23L7 23L7 22L8 22L8 23L10 23L10 24L8 24L8 27L9 27L9 28L8 28L8 33L9 33L9 31L10 31L10 33L11 33L11 32L12 32L12 33L19 33L19 32L20 32L20 33L21 33L21 32L22 32L22 33L25 33L25 32L26 32L26 31L27 31L27 30L29 30L29 31L28 31L28 33L29 33L29 32L31 32L31 33L32 33L32 32L31 32L31 31L32 31L32 30L31 30L31 29L30 29L30 30L29 30L29 28L32 28L32 29L33 29L33 28L32 28L32 26L33 26L33 23L31 23L31 21L29 21L29 20L31 20L31 19L32 19L32 20L33 20L33 19L32 19L32 18L33 18L33 17L32 17L32 14L33 14L33 11L32 11L32 10L33 10L33 9L32 9L32 8L31 8L31 9L32 9L32 10L28 10L28 8L27 8L27 9L26 9L26 8L24 8L24 7L25 7L25 5L24 5L24 4L25 4L25 2L24 2L24 4L23 4L23 1L24 1L24 0L23 0L23 1L21 1L21 0L20 0L20 1L21 1L21 2L19 2L19 3L22 3L22 4L18 4L18 3L17 3L17 2L18 2L18 0L16 0L16 1L15 1L15 0ZM8 1L8 2L9 2L9 1ZM16 1L16 2L17 2L17 1ZM15 4L15 5L16 5L16 4ZM22 4L22 5L23 5L23 7L24 7L24 5L23 5L23 4ZM9 6L9 7L10 7L10 6ZM11 6L11 7L12 7L12 6ZM21 6L21 7L22 7L22 6ZM10 8L10 9L11 9L11 8ZM17 8L17 9L18 9L18 10L22 10L22 9L18 9L18 8ZM29 8L29 9L30 9L30 8ZM1 9L1 10L4 10L4 12L5 12L5 11L6 11L6 12L7 12L7 13L6 13L6 14L7 14L7 13L8 13L8 12L7 12L7 11L8 11L8 9L6 9L6 10L4 10L4 9ZM24 9L24 10L25 10L25 13L28 13L28 14L30 14L30 13L31 13L31 14L32 14L32 13L31 13L31 12L32 12L32 11L31 11L31 12L30 12L30 13L28 13L28 12L26 12L26 11L27 11L27 10L26 10L26 9ZM6 10L6 11L7 11L7 10ZM19 12L19 13L20 13L20 12ZM4 13L4 14L5 14L5 13ZM10 13L10 14L8 14L8 15L5 15L5 17L3 17L3 18L5 18L5 21L4 21L4 22L5 22L5 23L6 23L6 22L7 22L7 21L8 21L8 20L9 20L9 19L8 19L8 20L7 20L7 19L6 19L6 18L8 18L8 17L9 17L9 15L12 15L12 14L11 14L11 13ZM15 14L15 15L16 15L16 14ZM25 14L25 15L27 15L27 14ZM21 15L21 16L22 16L22 15ZM28 15L28 16L29 16L29 15ZM1 16L1 17L2 17L2 16ZM6 16L6 17L5 17L5 18L6 18L6 17L8 17L8 16ZM11 16L11 17L10 17L10 19L12 19L12 18L11 18L11 17L12 17L12 16ZM25 16L25 17L27 17L27 16ZM30 16L30 17L31 17L31 16ZM18 17L18 18L19 18L19 17ZM21 17L21 18L22 18L22 17ZM28 17L28 18L26 18L26 20L25 20L25 21L27 21L27 22L26 22L26 23L25 23L25 22L21 22L21 21L22 21L22 20L20 20L20 22L19 22L19 23L20 23L20 24L19 24L19 25L17 25L17 24L18 24L18 23L17 23L17 22L18 22L18 21L17 21L17 20L18 20L18 19L17 19L17 20L16 20L16 19L15 19L15 18L14 18L14 19L13 19L13 20L11 20L11 21L12 21L12 22L10 22L10 23L12 23L12 24L16 24L16 25L12 25L12 26L11 26L11 27L10 27L10 29L9 29L9 30L11 30L11 31L13 31L13 32L14 32L14 31L13 31L13 28L15 28L15 27L14 27L14 26L16 26L16 27L17 27L17 28L16 28L16 29L14 29L14 30L16 30L16 31L17 31L17 32L19 32L19 31L20 31L20 32L21 32L21 31L22 31L22 32L25 32L25 31L26 31L26 30L27 30L27 29L26 29L26 30L25 30L25 29L24 29L24 28L23 28L23 27L22 27L22 28L19 28L19 27L20 27L20 26L21 26L21 25L22 25L22 26L24 26L24 24L29 24L29 21L27 21L27 20L29 20L29 17ZM0 20L0 25L1 25L1 20ZM6 20L6 21L7 21L7 20ZM13 20L13 21L14 21L14 20ZM15 20L15 21L16 21L16 22L15 22L15 23L16 23L16 24L17 24L17 23L16 23L16 22L17 22L17 21L16 21L16 20ZM23 20L23 21L24 21L24 20ZM32 21L32 22L33 22L33 21ZM13 22L13 23L14 23L14 22ZM27 22L27 23L28 23L28 22ZM21 23L21 24L22 24L22 25L23 25L23 24L24 24L24 23ZM31 24L31 25L30 25L30 27L31 27L31 25L32 25L32 24ZM9 25L9 26L10 26L10 25ZM16 25L16 26L17 26L17 27L19 27L19 26L20 26L20 25L19 25L19 26L17 26L17 25ZM25 25L25 28L28 28L28 25ZM12 26L12 27L13 27L13 26ZM26 26L26 27L27 27L27 26ZM17 28L17 29L16 29L16 30L17 30L17 29L19 29L19 30L20 30L20 31L21 31L21 30L22 30L22 31L25 31L25 30L22 30L22 29L23 29L23 28L22 28L22 29L19 29L19 28ZM11 29L11 30L12 30L12 29ZM30 30L30 31L31 31L31 30ZM0 0L0 7L7 7L7 0ZM1 1L1 6L6 6L6 1ZM2 2L2 5L5 5L5 2ZM26 0L26 7L33 7L33 0ZM27 1L27 6L32 6L32 1ZM28 2L28 5L31 5L31 2ZM0 26L0 33L7 33L7 26ZM1 27L1 32L6 32L6 27ZM2 28L2 31L5 31L5 28Z" fill="#000000"/></g></g></svg>
