<?xml version="1.0" encoding="UTF-8"?>
<svg xmlns="http://www.w3.org/2000/svg" version="1.1" width="300" height="300" viewBox="0 0 300 300"><rect x="0" y="0" width="300" height="300" fill="#ffffff"/><g transform="scale(8.108)"><g transform="translate(0,0)"><path fill-rule="evenodd" d="M10 0L10 2L11 2L11 0ZM12 0L12 1L13 1L13 2L12 2L12 4L13 4L13 3L14 3L14 4L15 4L15 5L17 5L17 4L18 4L18 7L19 7L19 8L20 8L20 7L21 7L21 8L22 8L22 9L21 9L21 10L20 10L20 9L18 9L18 8L17 8L17 6L16 6L16 9L12 9L12 7L13 7L13 5L11 5L11 6L10 6L10 4L11 4L11 3L8 3L8 4L9 4L9 5L8 5L8 7L9 7L9 8L6 8L6 9L5 9L5 8L0 8L0 14L1 14L1 13L2 13L2 14L3 14L3 13L5 13L5 14L4 14L4 16L5 16L5 18L3 18L3 19L1 19L1 18L0 18L0 20L2 20L2 21L3 21L3 20L4 20L4 19L5 19L5 20L6 20L6 21L7 21L7 20L6 20L6 19L8 19L8 18L6 18L6 17L8 17L8 16L9 16L9 17L10 17L10 16L9 16L9 14L10 14L10 13L11 13L11 12L10 12L10 10L11 10L11 9L12 9L12 10L13 10L13 11L12 11L12 13L13 13L13 12L14 12L14 13L15 13L15 14L17 14L17 15L16 15L16 17L12 17L12 15L13 15L13 14L11 14L11 17L12 17L12 18L13 18L13 19L12 19L12 21L13 21L13 20L14 20L14 21L15 21L15 22L24 22L24 21L28 21L28 20L27 20L27 19L28 19L28 18L30 18L30 19L29 19L29 20L30 20L30 21L29 21L29 23L28 23L28 22L26 22L26 23L27 23L27 24L24 24L24 25L21 25L21 24L22 24L22 23L20 23L20 25L19 25L19 26L18 26L18 28L17 28L17 26L16 26L16 25L12 25L12 23L13 23L13 22L11 22L11 21L10 21L10 19L9 19L9 20L8 20L8 21L10 21L10 23L11 23L11 24L8 24L8 25L7 25L7 24L6 24L6 23L9 23L9 22L6 22L6 23L3 23L3 22L2 22L2 23L1 23L1 24L0 24L0 29L1 29L1 26L2 26L2 27L3 27L3 28L2 28L2 29L3 29L3 28L4 28L4 27L7 27L7 28L5 28L5 29L7 29L7 28L8 28L8 31L10 31L10 29L9 29L9 28L11 28L11 26L10 26L10 25L12 25L12 26L13 26L13 27L12 27L12 29L13 29L13 28L14 28L14 29L15 29L15 28L16 28L16 30L15 30L15 31L14 31L14 32L15 32L15 33L12 33L12 31L13 31L13 30L11 30L11 32L8 32L8 37L11 37L11 36L10 36L10 35L11 35L11 33L12 33L12 34L13 34L13 35L12 35L12 37L13 37L13 36L14 36L14 37L15 37L15 36L16 36L16 37L18 37L18 36L20 36L20 35L18 35L18 34L20 34L20 32L22 32L22 31L23 31L23 32L24 32L24 33L21 33L21 36L23 36L23 37L26 37L26 36L23 36L23 34L24 34L24 35L26 35L26 34L25 34L25 33L26 33L26 32L27 32L27 33L30 33L30 34L31 34L31 33L32 33L32 34L33 34L33 35L34 35L34 34L33 34L33 33L35 33L35 35L36 35L36 36L33 36L33 37L37 37L37 30L36 30L36 29L35 29L35 28L36 28L36 27L37 27L37 26L36 26L36 27L35 27L35 26L34 26L34 25L35 25L35 24L33 24L33 22L32 22L32 24L31 24L31 22L30 22L30 21L31 21L31 20L30 20L30 19L31 19L31 18L32 18L32 19L33 19L33 18L32 18L32 17L36 17L36 16L32 16L32 13L33 13L33 10L34 10L34 8L33 8L33 10L32 10L32 8L31 8L31 10L30 10L30 11L29 11L29 9L30 9L30 8L29 8L29 4L28 4L28 3L29 3L29 1L27 1L27 4L26 4L26 3L25 3L25 2L26 2L26 1L25 1L25 0L22 0L22 1L24 1L24 2L23 2L23 3L24 3L24 4L23 4L23 5L24 5L24 7L25 7L25 6L26 6L26 7L27 7L27 8L29 8L29 9L28 9L28 10L27 10L27 12L25 12L25 11L26 11L26 10L25 10L25 11L24 11L24 12L23 12L23 10L24 10L24 9L26 9L26 8L24 8L24 9L23 9L23 8L22 8L22 7L23 7L23 6L22 6L22 7L21 7L21 6L20 6L20 7L19 7L19 5L20 5L20 4L21 4L21 5L22 5L22 4L21 4L21 3L22 3L22 2L21 2L21 3L20 3L20 2L19 2L19 1L20 1L20 0L18 0L18 1L16 1L16 0ZM8 1L8 2L9 2L9 1ZM14 2L14 3L15 3L15 2ZM16 2L16 4L17 4L17 3L18 3L18 4L19 4L19 3L18 3L18 2ZM27 4L27 5L26 5L26 6L27 6L27 7L28 7L28 6L27 6L27 5L28 5L28 4ZM9 6L9 7L10 7L10 6ZM11 6L11 7L12 7L12 6ZM14 6L14 8L15 8L15 6ZM10 8L10 9L11 9L11 8ZM35 8L35 12L34 12L34 13L35 13L35 12L37 12L37 10L36 10L36 8ZM1 9L1 12L2 12L2 13L3 13L3 11L4 11L4 10L3 10L3 9ZM6 9L6 10L5 10L5 12L8 12L8 13L6 13L6 14L9 14L9 12L8 12L8 11L6 11L6 10L7 10L7 9ZM16 9L16 10L18 10L18 9ZM22 9L22 10L23 10L23 9ZM19 10L19 11L16 11L16 13L17 13L17 14L18 14L18 13L21 13L21 14L19 14L19 15L17 15L17 16L18 16L18 17L20 17L20 16L21 16L21 17L22 17L22 19L24 19L24 20L23 20L23 21L24 21L24 20L26 20L26 19L24 19L24 18L28 18L28 17L30 17L30 18L31 18L31 17L32 17L32 16L31 16L31 15L30 15L30 14L31 14L31 13L30 13L30 14L28 14L28 13L29 13L29 11L28 11L28 13L24 13L24 14L22 14L22 12L20 12L20 10ZM31 10L31 12L32 12L32 10ZM14 11L14 12L15 12L15 11ZM17 12L17 13L18 13L18 12ZM25 14L25 15L28 15L28 16L29 16L29 15L28 15L28 14ZM35 14L35 15L37 15L37 14ZM1 15L1 16L0 16L0 17L1 17L1 16L2 16L2 17L3 17L3 16L2 16L2 15ZM5 15L5 16L8 16L8 15ZM14 15L14 16L15 16L15 15ZM21 15L21 16L22 16L22 17L24 17L24 15L23 15L23 16L22 16L22 15ZM25 16L25 17L27 17L27 16ZM30 16L30 17L31 17L31 16ZM16 17L16 18L17 18L17 17ZM18 18L18 19L16 19L16 21L17 21L17 20L18 20L18 21L19 21L19 20L21 20L21 21L22 21L22 20L21 20L21 19L20 19L20 18ZM35 18L35 21L34 21L34 23L37 23L37 22L36 22L36 21L37 21L37 18ZM14 19L14 20L15 20L15 19ZM32 20L32 21L33 21L33 20ZM0 21L0 22L1 22L1 21ZM4 21L4 22L5 22L5 21ZM2 23L2 24L3 24L3 23ZM14 23L14 24L15 24L15 23ZM16 23L16 24L17 24L17 25L18 25L18 24L17 24L17 23ZM29 23L29 24L27 24L27 25L24 25L24 26L19 26L19 27L20 27L20 28L18 28L18 29L17 29L17 30L16 30L16 31L15 31L15 32L16 32L16 33L15 33L15 34L17 34L17 32L18 32L18 33L19 33L19 32L20 32L20 31L21 31L21 29L24 29L24 30L23 30L23 31L24 31L24 30L27 30L27 31L28 31L28 30L27 30L27 29L25 29L25 28L29 28L29 25L30 25L30 26L31 26L31 28L35 28L35 27L34 27L34 26L33 26L33 25L30 25L30 23ZM5 24L5 26L7 26L7 25L6 25L6 24ZM36 24L36 25L37 25L37 24ZM3 25L3 27L4 27L4 25ZM8 26L8 27L10 27L10 26ZM24 26L24 27L21 27L21 28L25 28L25 27L28 27L28 26ZM32 26L32 27L33 27L33 26ZM14 27L14 28L15 28L15 27ZM18 29L18 31L19 31L19 30L20 30L20 29ZM29 29L29 32L32 32L32 29ZM33 29L33 32L35 32L35 33L36 33L36 31L34 31L34 29ZM30 30L30 31L31 31L31 30ZM25 31L25 32L26 32L26 31ZM27 34L27 35L28 35L28 36L27 36L27 37L28 37L28 36L29 36L29 37L32 37L32 35L31 35L31 36L30 36L30 35L28 35L28 34ZM14 35L14 36L15 36L15 35ZM16 35L16 36L18 36L18 35ZM0 0L0 7L7 7L7 0ZM1 1L1 6L6 6L6 1ZM2 2L2 5L5 5L5 2ZM30 0L30 7L37 7L37 0ZM31 1L31 6L36 6L36 1ZM32 2L32 5L35 5L35 2ZM0 30L0 37L7 37L7 30ZM1 31L1 36L6 36L6 31ZM2 32L2 35L5 35L5 32Z" fill="#000000"/></g></g></svg>
